<?xml version="1.0" encoding="UTF-8" standalone="no"?>
<!DOCTYPE svg PUBLIC "-//W3C//DTD SVG 1.1//EN"
 "http://www.w3.org/Graphics/SVG/1.1/DTD/svg11.dtd">
<!-- Generated by graphviz version 2.38.0 (20140413.2041)
 -->
<!-- Title: models_diagram Pages: 1 -->
<svg width="746pt" height="260pt"
 viewBox="0.00 0.00 746.31 260.00" xmlns="http://www.w3.org/2000/svg" xmlns:xlink="http://www.w3.org/1999/xlink">
<g id="graph0" class="graph" transform="scale(1 1) rotate(0) translate(4 256)">
<title>models_diagram</title>
<polygon fill="none" stroke="none" points="-4,4 -4,-256 742.312,-256 742.312,4 -4,4"/>
<!-- _diagram_info -->
<g id="node1" class="node"><title>_diagram_info</title>
<text text-anchor="start" x="8" y="-216.6" font-family="Times,serif" font-size="13.00">Models diagram</text>
<text text-anchor="start" x="8" y="-203.6" font-family="Times,serif" font-size="13.00">Date: Jul 18 2016 &#45; 21:20</text>
<text text-anchor="start" x="8" y="-190.6" font-family="Times,serif" font-size="13.00">Migration version: 20160719021140</text>
<text text-anchor="start" x="8" y="-177.6" font-family="Times,serif" font-size="13.00">Generated by RailRoady 1.5.1</text>
<text text-anchor="start" x="8" y="-164.6" font-family="Times,serif" font-size="13.00">http://railroady.prestonlee.com</text>
</g>
<!-- Inventory -->
<g id="node2" class="node"><title>Inventory</title>
<path fill="none" stroke="black" d="M236.587,-137.5C236.587,-137.5 460.312,-137.5 460.312,-137.5 466.312,-137.5 472.312,-143.5 472.312,-149.5 472.312,-149.5 472.312,-239.5 472.312,-239.5 472.312,-245.5 466.312,-251.5 460.312,-251.5 460.312,-251.5 236.587,-251.5 236.587,-251.5 230.587,-251.5 224.587,-245.5 224.587,-239.5 224.587,-239.5 224.587,-149.5 224.587,-149.5 224.587,-143.5 230.587,-137.5 236.587,-137.5"/>
<text text-anchor="middle" x="348.45" y="-236.3" font-family="Times,serif" font-size="14.00">Inventory</text>
<polyline fill="none" stroke="black" points="224.587,-229.5 472.312,-229.5 "/>
<text text-anchor="start" x="232.587" y="-214.3" font-family="Times,serif" font-size="14.00">id :integer</text>
<text text-anchor="start" x="232.587" y="-200.3" font-family="Times,serif" font-size="14.00">serie :character varying</text>
<text text-anchor="start" x="232.587" y="-186.3" font-family="Times,serif" font-size="14.00">tamanio :integer</text>
<text text-anchor="start" x="232.587" y="-172.3" font-family="Times,serif" font-size="14.00">descripcion :character varying</text>
<text text-anchor="start" x="232.587" y="-158.3" font-family="Times,serif" font-size="14.00">created_at :timestamp without time zone</text>
<text text-anchor="start" x="232.587" y="-144.3" font-family="Times,serif" font-size="14.00">updated_at :timestamp without time zone</text>
</g>
<!-- Operation -->
<g id="node3" class="node"><title>Operation</title>
<path fill="none" stroke="black" d="M369.587,-0.5C369.587,-0.5 593.312,-0.5 593.312,-0.5 599.312,-0.5 605.312,-6.5 605.312,-12.5 605.312,-12.5 605.312,-88.5 605.312,-88.5 605.312,-94.5 599.312,-100.5 593.312,-100.5 593.312,-100.5 369.587,-100.5 369.587,-100.5 363.587,-100.5 357.587,-94.5 357.587,-88.5 357.587,-88.5 357.587,-12.5 357.587,-12.5 357.587,-6.5 363.587,-0.5 369.587,-0.5"/>
<text text-anchor="middle" x="481.45" y="-85.3" font-family="Times,serif" font-size="14.00">Operation</text>
<polyline fill="none" stroke="black" points="357.587,-78.5 605.312,-78.5 "/>
<text text-anchor="start" x="365.587" y="-63.3" font-family="Times,serif" font-size="14.00">id :integer</text>
<text text-anchor="start" x="365.587" y="-49.3" font-family="Times,serif" font-size="14.00">worker_id :integer</text>
<text text-anchor="start" x="365.587" y="-35.3" font-family="Times,serif" font-size="14.00">created_at :timestamp without time zone</text>
<text text-anchor="start" x="365.587" y="-21.3" font-family="Times,serif" font-size="14.00">updated_at :timestamp without time zone</text>
<text text-anchor="start" x="365.587" y="-7.3" font-family="Times,serif" font-size="14.00">inventory_id :integer</text>
</g>
<!-- Inventory&#45;&gt;Operation -->
<g id="edge1" class="edge"><title>Inventory&#45;&gt;Operation</title>
<path fill="none" stroke="#7f4dbe" d="M406.629,-131.383C414.273,-123.222 422.066,-114.902 429.595,-106.864"/>
<ellipse fill="none" stroke="#7f4dbe" cx="403.749" cy="-134.458" rx="4.00002" ry="4.00002"/>
<ellipse fill="#7f4dbe" stroke="#7f4dbe" cx="432.56" cy="-103.698" rx="4.00002" ry="4.00002"/>
</g>
<!-- Worker -->
<g id="node4" class="node"><title>Worker</title>
<path fill="none" stroke="black" d="M502.587,-144.5C502.587,-144.5 726.312,-144.5 726.312,-144.5 732.312,-144.5 738.312,-150.5 738.312,-156.5 738.312,-156.5 738.312,-232.5 738.312,-232.5 738.312,-238.5 732.312,-244.5 726.312,-244.5 726.312,-244.5 502.587,-244.5 502.587,-244.5 496.587,-244.5 490.587,-238.5 490.587,-232.5 490.587,-232.5 490.587,-156.5 490.587,-156.5 490.587,-150.5 496.587,-144.5 502.587,-144.5"/>
<text text-anchor="middle" x="614.45" y="-229.3" font-family="Times,serif" font-size="14.00">Worker</text>
<polyline fill="none" stroke="black" points="490.587,-222.5 738.312,-222.5 "/>
<text text-anchor="start" x="498.587" y="-207.3" font-family="Times,serif" font-size="14.00">id :integer</text>
<text text-anchor="start" x="498.587" y="-193.3" font-family="Times,serif" font-size="14.00">name :character varying</text>
<text text-anchor="start" x="498.587" y="-179.3" font-family="Times,serif" font-size="14.00">email :character varying</text>
<text text-anchor="start" x="498.587" y="-165.3" font-family="Times,serif" font-size="14.00">created_at :timestamp without time zone</text>
<text text-anchor="start" x="498.587" y="-151.3" font-family="Times,serif" font-size="14.00">updated_at :timestamp without time zone</text>
</g>
<!-- Worker&#45;&gt;Operation -->
<g id="edge2" class="edge"><title>Worker&#45;&gt;Operation</title>
<path fill="none" stroke="#e53569" d="M562.672,-138.218C553.433,-128.354 543.795,-118.064 534.52,-108.162"/>
<ellipse fill="none" stroke="#e53569" cx="565.572" cy="-141.314" rx="4.00002" ry="4.00002"/>
<polygon fill="#e53569" stroke="#e53569" points="534.348,-107.978 530.796,-97.6029 530.93,-104.328 527.512,-100.679 527.512,-100.679 527.512,-100.679 530.93,-104.328 524.227,-103.755 534.348,-107.978 534.348,-107.978"/>
</g>
</g>
</svg>
